<?xml version="1.0" encoding="utf-8"?>
<!-- Generator: Adobe Illustrator 16.0.0, SVG Export Plug-In . SVG Version: 6.00 Build 0)  -->
<!DOCTYPE svg PUBLIC "-//W3C//DTD SVG 1.1//EN" "http://www.w3.org/Graphics/SVG/1.1/DTD/svg11.dtd">
<svg version="1.1" xmlns="http://www.w3.org/2000/svg" xmlns:xlink="http://www.w3.org/1999/xlink" x="0px" y="0px" width="150px"
	 height="423.337px" viewBox="0 0 150 423.337" enable-background="new 0 0 150 423.337" xml:space="preserve">
<g id="圖層_3">
</g>
<g id="圖層_1">
	<g>
		<path fill-rule="evenodd" clip-rule="evenodd" fill="#4D4D4D" d="M128.688,252.104c3.066-6.232,3.828-11.76,0.416-17.959
			c-1.737,4.084-3.205,7.535-4.674,10.986c-0.916-0.248-1.834-0.496-2.75-0.746c1.022-8.035,2.046-16.07,3.152-24.766
			c-1.498-0.773-3.396-1.242-4.596,1.916c-4.565,12.012-4.342,24.369-2.925,36.865c0.246,2.17-0.603,4.441-0.653,6.674
			c-0.137,5.914-0.014,11.836-0.199,17.75c-0.078,2.494-0.779,4.963-1.002,7.461c-0.277,3.105-0.35,6.229-0.514,9.346
			c-0.152,2.924,0.281,6.033-0.568,8.738c-3.236,10.297-7.062,20.408-10.271,30.715c-0.9,2.895-0.829,6.248-0.529,9.326
			c0.5,5.137,0.545,9.854-3.34,14.023c-1.1,1.178-1.659,4.004-1.029,5.449c2.502,5.734,1.255,11.129-0.641,16.533
			c-1.043,2.979-2.618,5.771-3.656,8.752c-1.677,4.814-3.752,8.441-10.001,6.85c-2.429-0.619-5.891,5.025-5.644,8.521
			c0.699,9.906-1.354,12.758-11.059,14.287c-3.574,0.564-7.351,0.693-10.928,0.217c-6.028-0.805-7.699-4.037-4.597-9.24
			c2.822-4.734,4.931-9.451,3.751-14.982c-0.9-4.215-2.266-8.328-3.385-12.498c-1.922-7.162-4.509-14.232-5.569-21.521
			c-2.155-14.814-3.452-29.754-5.171-44.633c-0.285-2.457-0.432-5.102-1.463-7.271c-4.98-10.482-4.471-21.52-4.625-32.723
			c-0.107-7.852-2.805-15.652-4.15-23.51c-0.838-4.898-1.755-9.852-1.853-14.795c-0.171-8.643-4.866-15.467-8.529-22.668
			c-0.66-1.297-3.663-1.777-5.642-1.943c-3.055-0.256-4.194-1.379-4.468-4.568c-0.438-5.115-0.919-10.414-2.616-15.197
			c-4.613-13.016-6.905-26.363-7.338-40.088c-0.1-3.148-0.346-6.395,0.242-9.449c3.521-18.3,7.23-36.564,10.982-54.817
			c0.533-2.589,1.688-5.046,2.486-7.586c1.871-5.961,5.898-9.24,11.969-10.755c5.956-1.487,12.086-3.02,17.478-5.811
			c4.855-2.514,8.943-6.617,13.067-10.353c0.939-0.851,0.995-3.114,0.832-4.662c-0.417-3.967-1.131-7.906-1.859-11.833
			c-0.156-0.849-0.674-1.881-1.355-2.342c-5.256-3.553-5.928-8.454-1.973-13.396c0.776-0.971,0.948-2.672,0.898-4.019
			C54.024,12.421,60.186,4.28,69.974,1.98c9.959-2.34,20.465,2.474,24.127,11.413c0.886,2.162,0.707,4.822,0.737,7.256
			c0.038,3.136-1.442,6.291,2.401,8.76c2.234,1.435-0.363,8.878-3.391,10.824c-5.498,3.535-6.186,13.934-1.833,18.642
			c7.751,8.383,18.075,10.997,28.466,13.282c6.217,1.367,10.021,3.851,12.332,10.352c5.351,15.049,7.533,30.692,10.132,46.255
			c2.271,13.6,4.478,27.289,5.306,41.025c0.73,12.08-0.341,24.287-0.92,36.422c-0.229,4.785,1.382,9.695-1.917,14.438
			c-1.117,1.605,0.878,5.316,1.333,8.086C148.223,237.716,139.366,249.983,128.688,252.104z M76.708,341.378
			c0.68,0.063,1.359,0.125,2.038,0.188c0.704-3.459,1.646-6.891,2.066-10.385c0.935-7.76,1.416-15.576,2.458-23.318
			c0.684-5.086-0.49-8.861-4.328-12.6c-3.209-3.125-5.211-8.135-2.29-12.338c5.71-8.219-0.245-14.521-2.868-21.59
			c-1.286,3.582-1.654,7.178-1.661,10.775c-0.009,4.117,0.339,8.232,0.466,12.35c0.107,3.486-0.064,6.988,0.207,10.459
			c0.92,11.73,1.986,23.451,2.988,35.176C76.106,333.854,76.401,337.616,76.708,341.378z M117.208,132.424
			c-6.143,9.204-1.682,59.296,5.68,66.755C120.995,176.927,119.102,154.675,117.208,132.424z M28.646,177.401
			c0.658,0.014,1.316,0.027,1.975,0.041c6.641-10.875,8.246-32.439,2.034-41.557C31.233,150.593,29.939,163.997,28.646,177.401z"/>
	</g>
</g>
<g id="圖層_2" display="none">
</g>
<g id="圖層_4" display="none">
</g>
<g id="圖層_5" display="none">
</g>
<g id="圖層_5_拷貝" display="none">
</g>
<g id="圖層_7" display="none">
</g>
</svg>
